<?xml version="1.0" standalone="no"?>
<!DOCTYPE svg PUBLIC "-//W3C//DTD SVG 20010904//EN"
 "http://www.w3.org/TR/2001/REC-SVG-20010904/DTD/svg10.dtd">
<svg version="1.0" xmlns="http://www.w3.org/2000/svg"
 width="900.000000pt" height="800.000000pt" viewBox="0 0 900.000000 800.000000"
 preserveAspectRatio="xMidYMid meet">

<g transform="translate(0.000000,800.000000) scale(0.100000,-0.100000)"
fill="#000000" stroke="none">
<path d="M5835 6990 c-3 -5 -19 -7 -34 -4 -45 9 -71 -10 -71 -53 0 -28 12 -53
51 -107 29 -39 65 -97 80 -130 26 -55 27 -61 13 -77 -9 -10 -30 -21 -48 -24
-68 -14 -127 -38 -141 -58 -21 -31 -2 -47 55 -47 27 0 69 -9 95 -20 26 -11 58
-20 72 -20 50 0 106 -24 122 -51 8 -15 31 -35 50 -45 19 -11 48 -30 64 -43 25
-21 27 -28 22 -61 -4 -23 0 -59 10 -93 9 -31 18 -69 21 -84 3 -15 9 -44 13
-63 10 -51 3 -148 -15 -203 -9 -26 -18 -66 -21 -89 -3 -28 -12 -47 -26 -57
-11 -8 -29 -23 -39 -33 -9 -9 -32 -24 -50 -33 -18 -8 -52 -31 -76 -50 -48 -39
-68 -45 -54 -17 20 37 7 88 -31 128 -42 45 -42 45 -21 86 15 29 15 32 0 44
-12 8 -29 9 -62 2 -41 -9 -48 -8 -66 12 -28 30 -41 104 -27 147 14 44 5 70
-45 122 -49 52 -81 67 -188 87 -129 25 -252 -6 -312 -76 -33 -40 -39 -66 -34
-145 4 -46 1 -71 -9 -87 -8 -13 0 -6 18 14 69 76 220 110 394 88 139 -18 145
-21 145 -70 0 -35 -3 -40 -24 -40 -39 0 -92 -27 -118 -60 -12 -17 -36 -47 -53
-67 l-29 -35 -61 7 c-33 4 -76 8 -95 9 l-35 1 1 -53 c2 -43 -1 -52 -13 -48 -8
3 -26 6 -39 6 -20 0 -28 9 -44 48 -11 26 -24 54 -29 63 -5 9 -13 33 -16 53 -4
20 -11 39 -16 42 -17 10 -9 -34 20 -105 17 -39 28 -71 25 -71 -3 0 0 -9 6 -20
6 -11 16 -20 23 -20 31 0 87 -22 87 -34 0 -7 9 -25 21 -40 20 -26 20 -26 0
-26 -19 0 -61 -47 -61 -69 0 -6 -17 -19 -37 -30 -21 -10 -49 -31 -63 -46 -13
-14 -52 -39 -85 -55 -79 -38 -144 -96 -196 -174 -24 -37 -59 -74 -87 -93 -132
-87 -171 -110 -239 -139 -102 -45 -123 -60 -123 -90 0 -27 -38 -49 -103 -60
-18 -3 -43 -7 -55 -10 -31 -6 -117 -87 -144 -135 -19 -34 -24 -37 -53 -32 -28
4 -37 0 -65 -30 -18 -20 -45 -39 -60 -42 -15 -3 -35 -14 -45 -25 -9 -10 -37
-21 -63 -25 -28 -4 -57 -16 -72 -30 -25 -23 -82 -34 -177 -34 -42 0 -43 -1
-43 -35 0 -27 -5 -36 -22 -41 -13 -4 -32 -15 -43 -25 -11 -10 -49 -32 -85 -50
-86 -41 -99 -52 -106 -88 -9 -44 21 -50 83 -18 48 26 126 35 137 17 8 -12 -19
-21 -65 -21 -58 0 -105 -23 -125 -62 -22 -43 -32 -49 -69 -42 -55 11 -125 68
-223 184 -53 63 -142 162 -197 220 -165 173 -224 241 -280 325 -53 80 -126
218 -140 265 -4 14 -13 39 -20 55 -7 17 -23 55 -35 86 -18 47 -25 56 -41 52
-38 -10 -37 -89 1 -236 68 -258 147 -406 326 -613 32 -38 64 -73 70 -79 10 -9
190 -213 354 -400 30 -34 102 -116 160 -180 58 -65 131 -147 162 -184 130
-152 180 -208 323 -363 148 -160 239 -262 385 -433 73 -86 106 -124 187 -215
22 -25 73 -83 112 -130 107 -126 220 -257 271 -315 25 -28 79 -91 120 -140 41
-49 98 -114 125 -145 28 -31 82 -94 120 -140 173 -208 293 -323 396 -381 33
-19 100 -59 148 -90 170 -111 284 -161 309 -135 11 11 7 18 -25 43 -21 16 -69
45 -108 64 -58 28 -94 58 -208 174 -76 77 -147 156 -158 177 -10 20 -29 45
-42 55 -35 27 -120 127 -137 160 -8 15 -39 55 -68 88 -67 76 -115 148 -132
202 -12 39 -11 47 6 79 10 20 34 43 52 52 36 18 52 56 33 81 -22 31 -22 39 2
63 13 13 26 30 28 37 4 11 9 11 25 1 17 -10 26 -10 52 4 17 9 39 16 49 16 26
0 119 86 495 460 241 239 342 346 354 375 27 65 54 184 61 266 5 72 4 80 -27
140 -18 35 -59 108 -92 161 l-59 97 29 43 c74 108 125 241 141 367 6 46 16 90
22 97 6 7 8 22 4 33 -3 11 1 54 10 96 8 41 18 123 22 181 l6 107 167 331 c91
182 175 351 185 376 10 25 33 77 51 115 17 39 35 82 39 95 4 14 11 30 15 35
17 23 70 200 70 234 0 49 -31 143 -74 223 -59 111 -126 219 -150 243 -14 13
-36 46 -51 72 -27 51 -106 126 -148 142 -17 7 -27 22 -37 58 -36 133 -111 220
-233 271 -43 18 -82 30 -87 27 -6 -3 -22 5 -37 19 -28 26 -67 34 -78 16z
m-105 -1315 c0 -7 -70 -35 -88 -35 -21 0 -10 10 16 15 12 2 30 8 39 14 20 11
33 14 33 6z m-270 -120 c0 -8 -61 -37 -67 -32 -2 3 8 12 24 20 30 16 43 20 43
12z m-355 -742 c-2 -21 0 -53 5 -73 5 -19 6 -51 2 -70 -8 -35 -8 -35 -57 -32
-28 1 -65 5 -83 8 l-32 5 25 37 c14 20 25 45 25 56 0 22 85 106 106 106 10 0
13 -10 9 -37z m81 -199 c88 -59 190 -179 200 -236 5 -28 2 -25 -22 21 -31 58
-164 195 -217 223 -18 10 -25 17 -16 18 9 0 34 -12 55 -26z m-466 -19 c-33
-19 -46 -19 -30 0 7 8 22 15 34 15 20 -1 20 -2 -4 -15z m-70 -49 c0 -4 -85
-46 -154 -76 -152 -65 -267 -121 -541 -265 -172 -90 -195 -105 -195 -122 0
-13 -3 -14 -12 -5 -20 20 31 55 244 163 311 157 383 192 518 250 30 13 71 31
90 41 35 17 50 21 50 14z m801 -318 c47 -41 44 -45 -8 -13 -34 21 -69 97 -56
119 4 6 10 -6 14 -28 5 -28 18 -48 50 -78z m130 -124 c13 -14 38 -34 56 -45
18 -12 33 -25 33 -30 0 -10 -114 73 -125 91 -12 20 12 9 36 -16z m-1832 -95
c-8 -5 -23 -9 -34 -8 -18 0 -17 1 5 13 26 15 52 10 29 -5z m2027 -44 c30 -19
56 -35 59 -35 10 0 92 -60 110 -81 12 -13 14 -19 5 -14 -33 18 -240 157 -240
161 0 9 13 2 66 -31z m-991 -75 c15 -47 35 -93 44 -103 8 -10 59 -43 112 -73
85 -48 104 -64 155 -132 33 -42 110 -130 172 -196 61 -66 112 -126 112 -133 0
-11 -78 -99 -213 -241 -7 -7 -57 -48 -112 -92 -163 -128 -174 -139 -192 -189
-13 -37 -27 -54 -67 -81 -28 -19 -81 -63 -117 -97 -119 -114 -162 -99 -339
121 -30 38 -64 78 -75 90 -11 12 -45 50 -75 86 -30 36 -64 74 -76 85 -17 17
-151 175 -248 294 -17 20 -47 55 -68 78 -21 24 -38 49 -38 56 0 8 20 45 45 83
24 38 45 77 45 86 0 10 10 23 23 29 12 7 42 29 67 50 38 31 54 38 105 42 33 3
74 10 90 15 55 17 170 80 194 106 23 24 78 47 151 62 48 9 155 65 215 112 28
22 53 36 56 33 3 -3 18 -44 34 -91z"/>
<path d="M5253 5901 c-46 -22 -89 -51 -98 -65 -17 -25 -16 -29 15 -108 18 -46
40 -91 48 -100 26 -31 37 -21 34 27 -5 57 5 61 112 48 47 -6 88 -6 99 -1 9 5
30 35 47 67 30 60 35 64 120 85 34 8 45 16 45 31 0 28 -64 43 -214 50 l-126 6
-82 -40z"/>
</g>
</svg>
